<svg className="absolute" width="357" height="488" viewBox="0 0 357 488" fill="none"
	xmlns="http://www.w3.org/2000/svg">
	<path fill-rule="evenodd" clip-rule="evenodd"
		d="M0 480C0 484.418 3.58172 488 8 488H349C353.418 488 357 484.418 357 480V7.99999C357 3.58171 353.418 0 349 0H8C3.58172 0 0 3.58172 0 8V480ZM349 472C349 476.418 345.418 480 341 480H16C11.5817 480 8 476.418 8 472V459.989C8 459.719 8.21873 459.5 8.48854 459.5V459.5C13.5135 459.5 17.7708 457.533 17.7708 450.884V377.649C17.7708 371 13.5135 369.033 8.48854 369.033V369.033C8.21873 369.033 8 368.815 8 368.545V16C8 11.5817 11.5817 8 16 8H341C345.418 8 349 11.5817 349 16V367.561C349 367.831 348.781 368.05 348.511 368.05V368.05C343.486 368.05 339.229 370.017 339.229 376.666V449.901C339.229 456.55 343.486 458.517 348.511 458.517V458.517C348.781 458.517 349 458.735 349 459.005V472Z"
		fill="url(#g1)" />
	<defs> 
		<linearGradient id="g1" x1=".5" y1=".2" x2=".5" y2="1"> 
		
		</linearGradient>
	</defs>
</svg>