<svg width="357" height="488" viewBox="0 0 357 488" fill="none" xmlns="http://www.w3.org/2000/svg">
	<path
		d="M349 487H8C4.13401 487 1 483.866 1 480V8C1 4.13401 4.13401 1 8 1H349C352.866 1 356 4.134 356 7.99999V480C356 483.866 352.866 487 349 487ZM16 481H341C345.971 481 350 476.971 350 472V459.005C350 458.183 349.334 457.517 348.511 457.517C346.102 457.517 344.043 457.041 342.602 455.914C341.208 454.825 340.229 452.996 340.229 449.901V376.666C340.229 373.57 341.208 371.742 342.602 370.652C344.043 369.526 346.102 369.05 348.511 369.05C349.334 369.05 350 368.384 350 367.561V16C350 11.0294 345.971 7 341 7H16C11.0294 7 7 11.0294 7 16V368.545C7 369.367 7.66646 370.033 8.48854 370.033C10.8979 370.033 12.9573 370.509 14.3982 371.636C15.7923 372.725 16.7708 374.554 16.7708 377.649V450.884C16.7708 453.98 15.7923 455.808 14.3982 456.898C12.9573 458.024 10.8979 458.5 8.48854 458.5C7.66644 458.5 7 459.166 7 459.989V472C7 476.971 11.0294 481 16 481Z"
		fill="#FF9900" stroke="black" stroke-width="2" />
</svg>
	